# xmcd
#
# Track frame offsets: 
#        150
#        27769
#        58483
#        67169
#        87936
#        114144
#        143562
#        153476
#        165566
#        189794
#        212617
#        233836
#        250405
#        303515
#
# Disc length: 4391 seconds
#
# Revision: 1
# Processed by: cddbd v1.5.2PL0 Copyright (c) Steve Scherf et al.
# Submitted via: ExactAudioCopy v0.99pb5
#
DISCID=b911250e
DTITLE=Charlie Parker - In Sweden 1950 (The Complete Recordings)
DYEAR=2003
DGENRE=Jazz
TTITLE0=Anthropology
TTITLE1=Cheers
TTITLE2=Lover Man
TTITLE3=Cool Blues
TTITLE4=Anthropology
TTITLE5=Scrapple From the Apple
TTITLE6=Star Eyes [tpt. out]
TTITLE7=Embraceable You
TTITLE8=Cool Blues
TTITLE9=All the Things You Are
TTITLE10=Strike Up The Band
TTITLE11=How High the Moon
TTITLE12=Body And Soul
TTITLE13=Find And Dandy
EXTD=YEAR: 2003
EXTT0=
EXTT1=
EXTT2=
EXTT3=
EXTT4=
EXTT5=
EXTT6=
EXTT7=
EXTT8=
EXTT9=
EXTT10=
EXTT11=
EXTT12=
EXTT13=
PLAYORDER=
